<svg version="1.1" id="Layer_1" xmlns="http://www.w3.org/2000/svg" xmlns:xlink="http://www.w3.org/1999/xlink" x="0px" y="0px"
	 width="100%" viewBox="0 0 1024 1024" enable-background="new 0 0 1024 1024" xml:space="preserve">
<path fill="#000000" opacity="0.000000" stroke="none" 
	d="
M600.000000,1025.000000 
	C401.500000,1025.000000 203.500000,1024.987793 5.500050,1025.093750 
	C1.750747,1025.095703 0.905801,1024.249146 0.906913,1020.500000 
	C1.007246,682.166687 1.007246,343.833344 0.906913,5.500028 
	C0.905801,1.750903 1.750902,0.905800 5.500028,0.906912 
	C343.833344,1.007255 682.166687,1.007255 1020.500000,0.906912 
	C1024.249146,0.905800 1025.094360,1.750902 1025.093262,5.500027 
	C1024.992920,343.833344 1024.992798,682.166687 1025.093140,1020.500000 
	C1025.094238,1024.249146 1024.249390,1025.097168 1020.499939,1025.094116 
	C880.500000,1024.982544 740.500000,1025.000000 600.000000,1025.000000 
z"/>
<path fill="#61AE5D" opacity="1.000000" stroke="none" 
	d="
M87.364136,581.256897 
	C83.496941,578.409058 84.948128,574.215576 84.329529,570.881409 
	C82.895149,563.150085 82.852280,555.171875 81.963051,547.325806 
	C80.140739,531.246399 81.331299,515.121826 81.011551,499.021484 
	C80.676460,482.148956 83.268578,465.498444 85.015198,448.785461 
	C85.262733,446.416962 86.761772,445.418213 88.924866,445.009125 
	C104.833679,442.000397 120.748222,439.020569 136.641724,435.932617 
	C149.961609,433.344727 163.253448,430.612762 176.562607,427.969208 
	C179.140182,427.457245 180.394211,425.878906 181.004318,423.383820 
	C186.067520,402.677673 193.503098,382.859100 202.589600,363.565582 
	C206.427292,355.416931 210.780273,347.576813 215.021667,339.672913 
	C216.400192,337.104065 214.962692,335.996735 213.981094,334.523193 
	C198.441696,311.196014 182.959549,287.828979 167.175201,264.668060 
	C164.123306,260.189941 163.726837,256.672455 167.613861,252.857849 
	C168.666748,251.824600 169.936874,250.932449 170.512787,249.153900 
	C173.506897,249.667709 175.454880,251.480164 177.346497,253.371399 
	C218.766418,294.782379 260.166656,336.213104 301.635254,377.575226 
	C304.342072,380.275116 305.683929,383.599152 307.354248,387.229980 
	C304.518463,395.792542 299.651733,403.021118 296.191864,410.964233 
	C284.580139,437.622253 277.671661,465.311249 275.333588,494.328918 
	C272.336975,531.519653 277.919098,567.368225 290.987762,602.085388 
	C302.133270,631.693726 318.764679,657.987610 340.165466,681.368408 
	C348.972504,690.990295 358.584534,699.613037 368.872742,708.142334 
	C369.343750,708.576599 369.532654,708.748596 370.007324,709.174255 
	C370.480103,709.600525 370.667175,709.773132 371.133514,710.206604 
	C371.601746,710.640625 371.790710,710.813721 372.263367,711.248413 
	C372.686401,711.725098 372.825806,711.940308 373.100281,712.512817 
	C372.916168,715.891235 375.034119,717.533264 376.923218,719.254883 
	C409.242340,748.707092 439.029236,780.725342 470.243713,811.296448 
	C471.663910,812.687378 472.543701,814.592651 474.660156,815.780762 
	C482.346558,823.309387 489.669952,830.715942 497.282593,838.323425 
	C505.151428,845.992371 512.349670,853.852783 520.637939,861.099854 
	C521.607788,863.149597 522.769348,864.464844 524.361267,865.731873 
	C529.379272,869.726013 533.316467,874.909485 538.646118,879.121826 
	C543.624878,885.775024 549.829590,890.699951 555.888672,896.293701 
	C556.820923,897.846497 557.383789,899.065308 558.597351,900.143921 
	C567.633423,908.175049 576.061340,916.826416 584.055908,925.896973 
	C584.755798,926.691040 584.988098,927.628784 584.749023,929.090820 
	C582.692078,942.312622 582.222961,942.574707 569.658691,944.384705 
	C542.518127,948.294434 515.217102,947.796509 487.945953,947.288391 
	C477.507111,947.093872 467.042267,945.880432 456.666534,944.348572 
	C453.530762,943.885620 450.581543,942.864075 447.575806,940.939270 
	C447.351074,940.529541 447.286133,940.544983 447.298157,940.576172 
	C446.964325,940.773987 446.659943,940.727173 446.172638,940.304443 
	C442.870911,929.577942 441.198395,918.672241 439.073608,907.876160 
	C436.150970,893.026062 433.536163,878.116333 430.138031,863.360657 
	C429.843933,862.083679 429.915924,860.722412 429.562073,859.094604 
	C427.133606,856.866516 426.091400,854.324707 425.557678,851.579712 
	C424.842560,847.901794 422.660370,845.752319 419.123230,844.737183 
	C399.710358,839.165649 381.141510,831.425476 362.967590,822.701965 
	C357.719666,820.182983 352.547089,817.442322 347.629761,814.360535 
	C342.858215,811.369934 338.894470,811.687988 334.313263,814.776794 
	C311.407654,830.220337 288.397095,845.508667 265.380859,860.787598 
	C259.532227,864.670227 259.552368,864.581726 253.905731,860.354248 
	C247.775665,855.764771 241.851685,850.944824 236.190521,845.251099 
	C235.472763,844.395935 234.974487,843.837769 234.211929,843.176514 
	C233.588638,842.512329 232.922607,842.525330 232.311737,841.967957 
	C232.213303,841.684814 232.203812,841.757690 232.240326,841.762207 
	C231.890457,841.765137 231.581314,841.609802 231.213577,841.061035 
	C224.903442,835.062866 218.494537,829.530457 212.398010,823.726807 
	C198.537384,810.532227 185.977203,796.072266 174.037323,781.102356 
	C171.290436,777.658386 169.039368,773.751709 165.951050,770.667908 
	C163.354752,768.075317 164.094681,766.198608 165.696121,763.806946 
	C179.170898,743.683228 192.628342,723.547974 206.072403,703.403748 
	C209.159027,698.778809 211.876434,693.868713 215.328598,689.540344 
	C217.558441,686.744507 217.623138,684.528015 215.943390,681.713806 
	C208.952576,670.001648 203.152466,657.682312 197.674896,645.216553 
	C193.598755,635.940125 189.746933,626.561462 186.888794,616.401672 
	C183.945572,614.522583 182.474792,611.938843 181.884064,608.967834 
	C180.683807,602.931519 176.578354,600.795837 171.037796,599.691589 
	C147.599686,595.020447 124.098633,590.671875 100.678162,585.910461 
	C96.135574,584.986877 91.723251,583.857117 87.364136,581.256897 
z"/>
<path fill="#6EAD6C" opacity="1.000000" stroke="none" 
	d="
M554.582520,82.622581 
	C558.777710,85.364586 563.308777,83.523918 567.435913,84.821045 
	C571.268799,86.025696 575.538879,85.839264 579.880676,86.588287 
	C583.156494,91.706329 584.629456,96.998543 585.702148,102.529739 
	C589.586548,122.558037 593.809204,142.521484 597.574158,162.571991 
	C598.706177,168.601227 601.160400,172.750595 607.613586,173.806274 
	C609.955933,174.189423 611.803894,175.738632 613.816711,177.611542 
	C620.285461,179.919800 626.519470,181.784271 632.598389,184.062790 
	C646.855835,189.406845 661.135803,194.729248 674.586853,201.965897 
	C680.329224,205.055283 686.388000,207.768494 691.527527,211.673340 
	C693.954651,213.517380 694.850891,211.984589 695.954285,211.364716 
	C699.205505,209.538193 702.213928,207.279541 705.634277,205.042603 
	C708.598633,205.123810 710.543152,206.570526 712.361023,208.388321 
	C747.584167,243.610458 782.838623,278.801270 818.015381,314.069916 
	C819.926453,315.985931 821.225403,318.282684 822.481201,321.009521 
	C822.187500,322.703491 821.536682,323.928070 820.698486,324.909729 
	C816.501526,329.824860 817.015564,334.477661 820.199158,339.919464 
	C834.487183,364.342438 844.422302,390.615570 851.966553,417.793701 
	C853.556091,423.519745 855.803894,427.567932 862.163757,428.261871 
	C863.758911,428.435883 865.349060,429.095581 866.429260,430.977600 
	C866.573547,431.310944 866.619141,431.446228 866.686951,431.423950 
	C867.110352,431.193695 867.404907,431.259369 867.854614,431.723450 
	C884.420898,435.098450 900.774597,438.331268 917.119629,441.607269 
	C923.999634,442.986176 930.856140,444.482452 937.736450,445.859833 
	C938.920410,446.096832 940.031982,446.234711 940.732910,447.843109 
	C943.231628,451.952606 944.126892,456.064972 944.634521,460.499390 
	C947.999634,489.893433 946.124573,519.380432 946.324158,548.821899 
	C946.377869,556.744568 945.431946,564.764160 943.358582,572.962036 
	C940.663940,577.240234 937.904236,576.080505 935.569946,573.345642 
	C930.054321,566.883484 924.003540,560.948975 917.979309,554.986938 
	C908.523865,545.629272 899.360840,535.976013 889.365662,526.652344 
	C886.430786,523.500488 883.678589,520.668640 880.910278,517.384399 
	C870.774963,508.291412 861.764404,498.549286 852.301270,489.267731 
	C848.184326,485.229828 843.261047,481.963898 840.005981,476.606812 
	C835.891968,473.112885 832.420166,469.481781 829.026733,465.306915 
	C818.364319,455.853210 808.727966,445.848022 798.935303,435.507294 
	C788.200195,425.770264 778.715454,415.255432 768.116028,405.399902 
	C759.777344,396.952972 751.809692,388.606537 743.559509,380.537476 
	C740.843323,377.880920 738.277344,375.068848 735.109253,372.377411 
	C723.278076,360.411072 712.149780,348.227753 699.314941,337.277832 
	C694.088501,332.182587 689.401855,327.040802 683.940918,322.692169 
	C682.431091,321.489868 680.813477,320.180511 680.505188,317.661194 
	C681.275269,315.263336 680.444458,313.766205 678.999268,312.349518 
	C608.212219,242.962540 538.698730,172.297867 468.412994,102.407852 
	C464.396454,98.413902 460.370422,94.428795 456.441254,90.346924 
	C454.797333,88.639099 453.712982,86.928650 455.784241,84.440598 
	C460.720337,84.046951 465.439758,83.976189 470.507874,82.915810 
	C474.307465,82.044960 477.738800,82.753540 481.533508,82.316833 
	C502.339020,82.125237 522.742126,82.077690 543.614990,82.097618 
	C547.424072,82.917671 550.813599,82.273438 554.582520,82.622581 
z"/>
<path fill="#67AD63" opacity="1.000000" stroke="none" 
	d="
M305.503479,387.473450 
	C304.118927,384.055328 302.016510,381.510132 299.639679,379.134888 
	C257.755463,337.277893 215.878555,295.413574 173.989227,253.561676 
	C172.812271,252.385742 171.475906,251.359894 170.911682,249.316620 
	C171.052368,248.669571 171.300690,248.355591 171.810699,247.889771 
	C172.221573,247.651215 172.370743,247.564468 172.655823,247.257401 
	C173.179962,246.507568 173.568192,245.978043 174.088318,245.145676 
	C174.334442,244.705627 174.448700,244.568420 174.734222,244.225342 
	C174.905518,244.019455 174.903046,243.918152 174.953690,243.916794 
	C175.174789,243.771713 175.345230,243.628006 175.729187,243.226883 
	C175.942703,242.969482 175.962540,242.969025 175.964233,242.959381 
	C176.125916,242.818939 176.285873,242.688156 176.613831,242.296967 
	C178.094711,238.951477 180.725449,236.940811 183.004059,234.221741 
	C183.264938,233.745132 183.408798,233.594421 183.748215,233.199921 
	C183.943771,232.956131 183.966904,232.985077 183.964310,232.969849 
	C184.107956,232.838608 184.254196,232.722580 184.536392,232.361786 
	C185.929016,230.779175 187.185684,229.441345 188.740570,227.932190 
	C189.342041,227.409698 189.517166,227.001450 189.750961,226.248383 
	C189.920853,225.953110 189.956482,225.939224 189.951569,225.957489 
	C190.106964,225.841354 190.267273,225.706955 190.628418,225.331512 
	C190.829285,225.090454 190.845032,224.915466 190.932251,224.905029 
	C191.165283,224.778534 191.311096,224.662445 191.599060,224.305603 
	C194.623444,221.093002 197.505707,218.121124 200.689636,214.991852 
	C201.587509,214.129898 202.097015,213.365631 202.687714,212.247284 
	C212.816193,201.372009 223.760925,191.864761 234.855606,182.490906 
	C241.623642,176.772629 248.587952,171.329361 255.487259,165.790405 
	C257.747528,163.975769 259.100983,164.261673 260.988770,165.518417 
	C268.905060,170.788452 276.805267,176.082718 284.725983,181.346069 
	C300.713257,191.969727 316.729614,202.549911 332.680786,213.227463 
	C334.928314,214.731918 336.446960,214.300797 338.700653,212.943634 
	C358.480530,201.032227 379.159424,191.009094 401.623535,184.103638 
	C404.447144,184.944153 406.392548,186.412643 408.192963,188.213791 
	C431.365570,211.395493 454.581757,234.533676 477.696716,257.773010 
	C479.694275,259.781311 481.977570,261.710144 480.446472,265.429993 
	C478.966888,268.759827 475.956329,268.498901 473.469452,268.983826 
	C440.449738,275.422363 410.223145,288.477570 382.711823,307.700134 
	C370.592682,316.167969 359.165741,325.461151 348.614777,336.010712 
	C334.146088,350.477478 321.760742,366.377899 310.863647,383.581238 
	C309.726929,385.375763 308.989716,388.128845 305.503479,387.473450 
z"/>
<path fill="#6AAC69" opacity="1.000000" stroke="none" 
	d="
M479.121948,265.425964 
	C478.860870,261.866150 476.559662,260.068390 474.578430,258.086121 
	C451.933533,235.429245 429.276520,212.784439 406.637939,190.121246 
	C405.007324,188.488815 403.125427,187.042297 402.122986,184.478821 
	C408.814819,181.455109 415.611237,178.582764 422.789185,177.151260 
	C426.847382,176.341934 428.340607,174.462112 429.083069,170.592041 
	C434.295685,143.422333 439.705048,116.290291 445.094940,89.154831 
	C445.595367,86.635536 447.285248,85.249832 449.903961,84.993813 
	C451.681763,84.820015 453.578735,85.548828 455.615479,84.248260 
	C456.242371,87.532341 458.845673,89.322067 460.931000,91.408180 
	C533.784119,164.288727 606.661926,237.144577 679.464905,310.075165 
	C681.141113,311.754333 684.995850,313.108551 681.856812,316.995361 
	C679.534485,319.347107 677.992798,317.541290 676.447388,316.426178 
	C667.818237,310.199921 659.152100,304.055969 649.960388,298.642853 
	C618.066772,279.860291 583.722046,268.765686 546.882385,265.405670 
	C526.616760,263.557281 506.393188,263.990021 486.231842,266.867523 
	C483.830139,267.210327 481.278046,268.108734 479.121948,265.425964 
z"/>
<path fill="#272221" opacity="1.000000" stroke="none" 
	d="
M940.566345,574.311279 
	C942.630493,562.881165 944.078125,551.728271 944.019409,540.413879 
	C943.936523,524.442627 943.834473,508.468414 944.049866,492.499634 
	C944.246887,477.892090 941.969849,463.495422 940.935608,448.568359 
	C947.528015,453.311829 952.963806,459.646545 958.848999,465.515533 
	C960.307129,466.969574 960.687134,468.928345 961.011841,470.968536 
	C966.282349,504.082245 963.446716,537.432922 963.780334,570.678589 
	C963.864685,579.080200 961.890869,587.500122 960.898560,595.915894 
	C960.444580,599.765747 957.571350,600.415405 954.509155,601.024658 
	C929.554382,605.989868 904.657471,611.271912 879.624512,615.802612 
	C872.726013,617.051147 869.525513,619.833984 867.777344,626.645081 
	C862.014526,649.097595 853.004578,670.372681 842.517212,691.009644 
	C840.038269,695.887573 837.269470,700.663147 834.170776,705.167114 
	C831.629578,708.860657 831.683411,711.724182 834.243469,715.500183 
	C849.364746,737.803284 864.168884,760.321228 879.263428,782.642761 
	C881.629089,786.140930 881.371948,788.468323 878.918091,791.866516 
	C862.477600,814.635071 842.770386,834.433105 822.595337,853.743835 
	C812.663269,863.250366 801.575012,871.524414 790.605835,879.866577 
	C787.506409,882.223755 785.239807,881.149719 782.548645,879.350220 
	C759.873047,864.187317 737.058960,849.228882 714.520569,833.865723 
	C710.131470,830.873840 706.737671,830.695923 702.305115,833.270752 
	C681.800232,845.181580 659.848511,853.785339 637.347961,861.055359 
	C632.769348,862.534729 628.104858,863.779663 623.424988,864.903503 
	C620.160889,865.687378 618.456055,867.205750 617.763977,870.788574 
	C612.341919,898.860291 606.611633,926.872437 601.157654,954.938232 
	C600.391907,958.878357 598.569336,960.435181 594.667358,961.068970 
	C566.435425,965.655212 537.978027,965.529968 509.555847,964.808533 
	C496.151550,964.468201 482.788971,962.297363 469.424622,960.802673 
	C467.688812,960.608582 465.658539,959.907410 464.442627,958.736816 
	C458.581360,953.094299 452.356384,947.785828 447.384155,940.885803 
	C477.027588,945.289795 506.944672,945.746460 536.862793,944.796692 
	C550.079468,944.377197 563.242615,942.254883 576.428528,940.890991 
	C578.860413,940.639465 580.420837,939.331604 580.847351,936.878174 
	C581.301025,934.268860 581.677368,931.646179 582.142090,928.624817 
	C580.502808,920.931885 582.544067,913.949524 584.097961,906.973022 
	C587.288757,892.646729 588.833740,877.978088 593.094543,863.876343 
	C593.535828,862.415833 592.734375,860.996338 592.910095,859.122314 
	C594.091980,855.891785 594.837341,852.960510 595.250854,850.009583 
	C595.847229,845.752869 598.337585,843.631653 602.235840,842.572937 
	C607.536621,841.133240 612.886597,839.848389 618.405640,837.720886 
	C626.918579,835.977600 634.378052,832.350342 642.050232,829.467224 
	C656.182861,824.156128 669.781860,817.578613 682.999023,810.236267 
	C685.239746,808.991455 687.545837,807.267334 690.815308,808.555725 
	C691.671143,808.796814 692.139526,808.984314 692.875977,809.457642 
	C693.546204,809.995422 693.934387,810.290466 694.624512,810.780273 
	C707.462036,820.051880 720.787048,827.968323 733.575012,837.294678 
	C742.834412,842.853027 751.333679,848.938904 760.072937,854.657471 
	C766.680847,858.981567 767.552856,859.051331 773.678101,854.300232 
	C787.185913,843.822632 800.309448,832.896362 812.324341,820.695984 
	C815.235107,817.740356 818.117920,814.751831 821.527222,811.804993 
	C833.278625,799.498901 844.082825,786.835754 854.291870,773.668457 
	C858.562927,768.159729 858.575562,766.992310 854.762390,761.256836 
	C840.463440,739.749756 826.184937,718.228210 811.732300,696.824890 
	C808.939636,692.689148 808.540039,689.388977 811.393921,685.074890 
	C816.613037,677.185181 820.411987,668.438477 825.549744,660.061157 
	C826.206848,655.458923 828.780457,652.041626 830.365845,648.221680 
	C836.495850,633.452026 842.027100,618.469788 845.969666,602.968628 
	C847.391907,597.376892 850.391968,594.735535 856.059326,593.743591 
	C880.473816,589.470337 904.703735,584.224976 929.022156,579.441406 
	C933.123230,578.634644 937.206116,577.779541 940.566345,574.311279 
z"/>
<path fill="#72AC71" opacity="1.000000" stroke="none" 
	d="
M820.438232,321.109985 
	C819.198303,318.257080 817.062378,316.577362 815.191956,314.705933 
	C780.493530,279.988770 745.780762,245.285934 711.083618,210.567551 
	C709.440430,208.923325 707.913696,207.162781 706.141968,205.175812 
	C721.463623,195.288803 735.865479,184.006638 751.582214,174.699707 
	C755.376160,172.453049 759.062378,169.935440 762.462585,167.135010 
	C766.866150,163.508179 770.357910,165.606537 773.802795,168.387283 
	C781.114258,174.289062 788.665283,179.951279 795.487610,186.380707 
	C799.780945,190.426788 804.310913,194.200150 808.741882,198.039825 
	C820.267395,208.027252 829.869202,219.803482 840.638062,230.939178 
	C841.280701,231.415787 841.504456,231.782913 841.829956,232.463882 
	C842.265930,233.015823 842.448608,233.346344 842.867188,233.838806 
	C843.480225,234.508835 844.194702,234.473343 844.445557,235.189880 
	C844.288452,235.448242 844.339600,235.642853 844.431152,235.684677 
	C845.504944,235.080688 845.366699,236.035400 845.759583,236.738617 
	C845.929199,237.003479 845.927246,237.072418 845.961731,237.071960 
	C852.156006,242.971222 857.096802,249.909836 862.565247,256.400787 
	C864.756470,259.001678 863.294800,260.930908 862.012878,262.930176 
	C857.170837,270.481812 852.224487,277.968597 847.104187,285.333435 
	C839.992126,295.563080 832.988464,305.859039 826.342468,316.401337 
	C825.020508,318.498322 824.145081,321.450592 820.438232,321.109985 
z"/>
<path fill="#272221" opacity="1.000000" stroke="none" 
	d="
M236.022766,845.300293 
	C242.060135,849.564819 248.316879,853.974915 254.171371,858.866455 
	C257.349609,861.522034 259.594116,861.766663 263.169891,859.340820 
	C287.384125,842.913818 311.830994,826.829773 336.046997,810.405334 
	C339.505096,808.059937 342.011780,808.176392 345.419312,810.168579 
	C369.185547,824.062805 394.290863,834.935425 420.814301,842.320862 
	C425.596924,843.652588 427.680634,845.966797 428.047424,850.598755 
	C428.242920,853.067627 428.805664,855.507507 429.254456,858.374695 
	C407.568024,851.806702 386.635468,842.948853 367.040741,831.193298 
	C362.408081,828.414001 359.102509,828.442505 354.548462,831.547485 
	C331.472565,847.280212 308.046783,862.499451 284.956360,878.211365 
	C280.431915,881.289978 277.394897,881.733276 272.827057,878.128662 
	C261.369843,869.087585 250.261856,859.666931 239.425171,849.909546 
	C238.076614,848.695312 236.643799,847.496521 236.022766,845.300293 
z"/>
<path fill="#272221" opacity="1.000000" stroke="none" 
	d="
M820.003540,321.221283 
	C833.559021,300.926758 846.934143,280.932922 860.476990,261.053284 
	C862.151550,258.595184 861.122864,257.154846 859.777710,255.418228 
	C855.214966,249.527603 850.654053,243.635544 846.044312,237.407806 
	C850.148010,237.928879 852.209045,241.563141 854.557617,244.325836 
	C862.824219,254.050018 871.211487,263.688019 878.734680,274.044006 
	C881.264404,277.526337 881.635193,279.932281 879.115723,283.616425 
	C864.697632,304.699738 850.638855,326.029053 836.196045,347.095154 
	C833.629089,350.839172 833.662903,353.467804 835.935608,357.325195 
	C848.208374,378.155334 857.835205,400.209076 865.250671,423.217194 
	C866.004944,425.557648 866.238037,428.066101 866.643250,430.903778 
	C852.553833,429.871002 852.617981,429.853333 848.985413,416.661957 
	C841.369324,389.004669 830.630005,362.613831 816.094543,337.869019 
	C813.532593,333.507660 813.094421,330.277496 816.608215,326.557465 
	C817.953674,325.133057 818.800354,323.237610 820.003540,321.221283 
z"/>
<path fill="#272221" opacity="1.000000" stroke="none" 
	d="
M87.180283,581.335449 
	C97.266510,581.821289 107.171448,584.562805 117.217964,586.467529 
	C136.535522,590.130066 155.757446,594.303955 175.097687,597.835083 
	C179.920792,598.715637 182.839676,600.260742 183.695862,605.345764 
	C184.266479,608.734863 185.649963,611.987061 186.740738,615.657471 
	C166.884476,613.309204 147.425781,608.165588 127.655327,604.643921 
	C126.018814,604.352356 124.387787,603.807922 122.748878,603.786438 
	C106.433815,603.571655 96.969727,592.479675 87.180283,581.335449 
z"/>
<path fill="#272221" opacity="1.000000" stroke="none" 
	d="
M614.059692,177.474609 
	C609.332275,176.721115 604.576843,175.390823 599.741089,174.493607 
	C596.505676,173.893311 596.660156,171.249527 596.251648,169.253387 
	C593.044800,153.583115 590.051636,137.869232 586.954834,122.176270 
	C584.687927,110.689232 582.363831,99.213493 580.105103,87.321991 
	C586.068542,92.759087 592.003235,98.595840 597.909363,104.461311 
	C599.741638,106.280952 600.564575,108.571983 601.054932,111.093407 
	C605.334473,133.096344 609.674988,155.087418 614.059692,177.474609 
z"/>
<path fill="#72AC71" opacity="1.000000" stroke="none" 
	d="
M481.493713,82.106354 
	C478.647552,83.500198 475.214142,82.870537 471.383362,82.890213 
	C474.189301,81.125259 477.685211,82.383392 481.493713,82.106354 
z"/>
<path fill="#72AC71" opacity="1.000000" stroke="none" 
	d="
M554.742371,82.399170 
	C551.592224,83.046875 548.190918,83.346909 544.452332,82.311798 
	C547.553345,82.137032 551.021912,82.108963 554.742371,82.399170 
z"/>
<path fill="#61AE5D" opacity="1.000000" stroke="none" 
	d="
M202.536194,212.056000 
	C202.366241,212.781021 201.911697,213.633087 201.224243,214.659790 
	C200.753189,213.637756 201.465851,212.893005 202.536194,212.056000 
z"/>
<path fill="#272221" opacity="1.000000" stroke="none" 
	d="
M232.330780,841.954773 
	C232.724060,841.960815 233.234833,842.236816 233.846619,842.793091 
	C233.447861,842.790527 232.948059,842.507629 232.330780,841.954773 
z"/>
<path fill="#272221" opacity="1.000000" stroke="none" 
	d="
M845.852905,236.749878 
	C845.530884,236.731369 845.132568,236.459244 844.628418,235.956818 
	C844.940613,235.983078 845.358582,236.239655 845.852905,236.749878 
z"/>
<path fill="#272221" opacity="1.000000" stroke="none" 
	d="
M844.276123,235.190125 
	C843.905518,235.132904 843.522522,234.817596 843.121338,234.251495 
	C843.490051,234.311157 843.876892,234.621597 844.276123,235.190125 
z"/>
<path fill="#61AE5D" opacity="1.000000" stroke="none" 
	d="
M189.643188,226.045395 
	C189.721481,226.422195 189.522125,226.891296 189.180756,227.560623 
	C189.147690,227.219788 189.256607,226.678741 189.643188,226.045395 
z"/>
<path fill="#272221" opacity="1.000000" stroke="none" 
	d="
M842.045044,232.427582 
	C841.718079,232.343201 841.352905,232.001099 840.946533,231.399994 
	C841.272522,231.483948 841.639648,231.826904 842.045044,232.427582 
z"/>
<path fill="#61AE5D" opacity="1.000000" stroke="none" 
	d="
M184.484314,232.179565 
	C184.549149,232.328278 184.401779,232.521118 184.095978,232.825073 
	C183.965607,232.666336 184.077133,232.428848 184.484314,232.179565 
z"/>
<path fill="#272221" opacity="1.000000" stroke="none" 
	d="
M446.139221,940.329590 
	C446.271698,940.209900 446.601990,940.242249 447.121216,940.440918 
	C446.985779,940.565430 446.661377,940.523499 446.139221,940.329590 
z"/>
<path fill="#272221" opacity="1.000000" stroke="none" 
	d="
M231.213058,841.050415 
	C231.393555,840.978577 231.709213,841.136047 232.150864,841.530151 
	C231.967300,841.604370 231.657761,841.442078 231.213058,841.050415 
z"/>
<path fill="#61AE5D" opacity="1.000000" stroke="none" 
	d="
M191.546585,224.121841 
	C191.611908,224.273438 191.461166,224.465134 191.154236,224.767288 
	C190.997269,224.593964 191.108109,224.355362 191.546585,224.121841 
z"/>
<path fill="#61AE5D" opacity="1.000000" stroke="none" 
	d="
M190.618652,225.158173 
	C190.656921,225.307556 190.468689,225.509888 190.105621,225.836594 
	C190.005554,225.667267 190.159332,225.417328 190.618652,225.158173 
z"/>
<path fill="#272221" opacity="1.000000" stroke="none" 
	d="
M867.876221,431.708466 
	C867.744019,431.822296 867.417236,431.796448 866.922607,431.586121 
	C867.083008,431.350281 867.391968,431.405975 867.876221,431.708466 
z"/>
<path fill="#61AE5D" opacity="1.000000" stroke="none" 
	d="
M183.698761,233.001541 
	C183.774872,233.177750 183.596542,233.391510 183.264938,233.746613 
	C182.990616,233.518433 183.101501,233.235474 183.698761,233.001541 
z"/>
<path fill="#61AE5D" opacity="1.000000" stroke="none" 
	d="
M176.571442,242.105225 
	C176.627029,242.260025 176.454208,242.468613 176.114655,242.806030 
	C175.972122,242.626984 176.103821,242.368378 176.571442,242.105225 
z"/>
<path fill="#61AE5D" opacity="1.000000" stroke="none" 
	d="
M175.707611,243.035156 
	C175.754242,243.199081 175.552200,243.416031 175.170456,243.767899 
	C175.009552,243.557236 175.165604,243.285690 175.707611,243.035156 
z"/>
<path fill="#61AE5D" opacity="1.000000" stroke="none" 
	d="
M174.703735,244.074509 
	C174.779266,244.224335 174.635452,244.416061 174.347137,244.718735 
	C174.117798,244.527679 174.211716,244.289917 174.703735,244.074509 
z"/>
<path fill="#61AE5D" opacity="1.000000" stroke="none" 
	d="
M172.609924,247.079071 
	C172.660980,247.222931 172.509933,247.390472 172.205505,247.638824 
	C172.071259,247.463181 172.189835,247.257538 172.609924,247.079071 
z"/>
<path fill="#CCCCCC" opacity="1.000000" stroke="none" 
	d="
M478.663635,265.219177 
	C492.239014,263.751648 505.398773,261.903015 518.752380,261.675659 
	C561.487976,260.948090 601.742432,270.538818 639.670776,290.048706 
	C654.347351,297.598206 668.101440,306.633301 681.309326,317.062775 
	C686.695374,321.819580 691.811707,326.416443 696.849915,331.097534 
	C698.135559,332.292053 699.784790,333.276581 700.141479,335.606537 
	C701.977722,339.088043 699.302307,340.595734 697.670898,342.214661 
	C686.580078,353.220612 675.943237,364.691162 663.963318,375.317627 
	C655.033264,385.711578 645.124268,394.629272 635.768860,404.089874 
	C632.809448,407.082550 630.377319,406.041199 627.626953,403.611145 
	C617.631165,394.779785 607.125793,386.619751 595.315186,380.293488 
	C579.010254,371.559814 561.694458,365.864197 543.347473,363.535980 
	C513.713257,359.775421 485.303925,364.161499 458.240265,376.896606 
	C449.330353,381.089294 441.091400,386.411499 432.825073,392.392517 
	C399.580109,418.026367 379.692352,451.315094 374.024567,492.440887 
	C367.982758,536.280457 379.801483,575.421753 407.709076,609.763306 
	C419.421295,624.175781 433.836090,635.271973 449.951294,644.954346 
	C460.739349,651.073608 471.967194,655.143250 483.496674,658.393127 
	C488.286102,659.743164 493.081604,661.217712 498.501282,661.527283 
	C499.421753,661.567017 499.951691,661.591309 500.892334,661.625977 
	C501.853210,661.754211 502.355408,661.979309 503.179016,662.497437 
	C511.121674,664.101013 518.821838,663.025696 526.833740,663.894043 
	C557.853394,662.419189 586.216675,654.294922 611.200256,635.137085 
	C618.010986,633.954468 620.710999,627.927124 625.273560,624.415649 
	C632.207336,619.079163 632.032715,618.852295 639.227661,624.916138 
	C639.748779,627.477478 641.884766,628.039673 643.211792,629.360352 
	C653.799988,639.898010 664.579041,650.246887 675.011230,661.432129 
	C678.960693,664.880798 682.490540,668.237122 685.272217,672.751343 
	C690.387878,677.198914 694.845581,681.810547 699.306824,686.414795 
	C700.651184,687.802246 702.302979,689.134644 701.664795,691.849670 
	C701.710693,694.365967 700.074402,695.342102 698.763123,696.619812 
	C678.894714,715.978760 656.188965,731.218262 631.249878,743.224792 
	C630.054688,743.800171 629.055237,744.750061 627.331543,745.035156 
	C624.887695,744.495483 623.691956,746.179688 622.131653,746.911072 
	C606.214722,754.370911 589.542175,759.311890 571.754028,761.949829 
	C553.455322,766.930786 535.136169,766.611938 516.392212,766.479736 
	C515.373657,766.435669 514.795715,766.406860 513.795410,766.398926 
	C513.103455,766.479187 512.833435,766.546143 512.154297,766.675293 
	C468.090607,764.911072 427.780243,752.168579 390.496521,729.567139 
	C383.135956,725.105042 376.730621,719.443909 370.297668,713.191833 
	C370.029724,712.891724 369.995514,712.989502 370.044434,713.006531 
	C369.822052,712.803040 369.563538,712.568542 369.142059,712.125305 
	C368.964386,711.932739 368.957153,712.038513 369.010040,712.042236 
	C368.753113,711.727600 368.416962,711.440063 367.741150,711.071838 
	C362.888123,705.430420 356.847687,701.552795 351.706940,696.667114 
	C309.679230,656.724854 283.609802,608.337769 274.929108,550.939270 
	C266.203033,493.240753 276.595642,438.912903 305.075745,387.652466 
	C314.422180,372.298950 324.552734,357.849213 336.276978,344.692963 
	C346.647980,333.055267 358.297424,322.646240 370.738739,313.162079 
	C402.822479,288.704407 438.609497,272.649139 478.663635,265.219177 
z"/>
<path fill="#498446" opacity="1.000000" stroke="none" 
	d="
M620.341797,839.723083 
	C615.151978,841.382874 610.343994,843.208313 605.371826,844.250061 
	C600.574646,845.255188 597.603882,847.278809 597.404602,852.534607 
	C597.331299,854.468933 596.584167,856.377686 596.018799,858.678467 
	C594.812744,861.853882 593.273743,864.483276 591.229675,866.555725 
	C581.332275,876.590149 572.228394,887.382874 561.949402,897.053955 
	C559.638000,899.228699 557.465210,900.374268 554.221191,898.252930 
	C548.350708,892.577881 542.802795,887.088379 537.064575,881.322144 
	C536.902344,879.446289 538.179504,878.920166 539.243103,878.113220 
	C543.378540,874.976196 547.183960,871.520630 549.412415,866.672852 
	C549.901306,865.609314 550.529968,864.617920 551.364990,863.792053 
	C561.545715,853.723755 570.516357,842.561829 580.142883,831.993042 
	C581.255798,830.771179 582.378235,829.301941 584.059448,829.006836 
	C590.364502,827.900085 593.967590,823.168274 597.812073,818.849609 
	C599.912415,816.490234 601.888367,814.014771 604.193604,811.850281 
	C606.377686,809.799622 607.831238,807.634399 606.976929,804.390930 
	C606.352722,802.020691 607.801575,800.269409 609.397095,798.708130 
	C623.197021,785.205017 635.288147,770.128662 648.625977,756.184448 
	C662.746887,741.421509 676.585327,726.367249 689.983459,710.927124 
	C690.968201,709.792297 691.836975,708.574158 692.691101,707.344482 
	C695.380249,703.473145 698.126160,699.751892 703.420959,699.253662 
	C704.920105,699.112610 706.047302,697.883606 707.544739,696.766235 
	C712.075806,696.247192 713.333923,700.052124 716.044434,702.467651 
	C718.820007,705.375977 721.024841,708.289917 723.994263,710.475830 
	C725.199768,711.363159 726.173523,712.556519 725.616455,714.647522 
	C725.125854,716.758057 724.036804,718.219971 722.513062,718.800110 
	C712.327209,722.678040 707.219238,732.002197 701.056152,739.741821 
	C691.031250,752.330872 681.543335,765.362000 671.261597,777.771057 
	C668.498352,781.106018 665.703918,784.391174 662.592346,787.404724 
	C659.005615,790.878662 655.750916,794.148743 655.698730,800.007935 
	C655.660339,804.316895 651.497192,807.367859 648.694031,810.633606 
	C642.957336,817.316772 637.021790,823.828552 631.380554,830.594238 
	C628.342834,834.237488 624.133789,836.450195 620.341797,839.723083 
z"/>
<path fill="#477F44" opacity="1.000000" stroke="none" 
	d="
M708.211792,697.639648 
	C707.125610,700.573608 705.714539,702.680603 702.746033,702.553955 
	C699.782471,702.427368 698.160034,704.177979 696.609680,706.184814 
	C685.510071,720.552185 672.971558,733.642761 660.622009,746.907532 
	C644.067688,764.688599 627.611145,782.560730 611.152466,800.430359 
	C610.013489,801.666992 608.161499,803.099670 611.158508,804.612488 
	C613.398254,805.742981 611.861145,807.297607 610.978577,808.249878 
	C604.644165,815.085144 598.205566,821.823975 591.787598,828.581604 
	C591.448425,828.938782 591.039490,829.331665 590.590332,829.467407 
	C578.468689,833.129944 573.583374,844.698792 565.318054,852.568237 
	C565.199341,852.681274 565.140137,852.858154 565.018799,852.966797 
	C556.929626,860.206360 551.522888,869.743225 544.019165,877.484497 
	C542.247864,879.311768 540.403320,880.970520 537.260010,881.015625 
	C530.998840,875.232361 525.123352,869.419312 519.059814,863.328125 
	C519.325989,860.092285 522.317749,859.679016 524.042297,858.008362 
	C537.432678,845.036011 549.926025,831.263489 561.595947,816.730164 
	C563.468323,814.398315 565.466736,812.170105 568.634705,811.434326 
	C571.401123,810.791748 572.924438,808.966980 572.854858,806.046326 
	C572.800049,803.745605 573.609741,801.758484 575.112915,800.126709 
	C580.636169,794.131714 585.553162,787.631165 591.163635,781.682983 
	C600.961426,771.295471 611.216431,761.283020 619.652222,749.662170 
	C621.484009,747.138733 624.245667,745.497498 626.737366,743.119385 
	C634.491638,738.772583 642.133240,734.865906 649.571167,730.603943 
	C667.931702,720.083313 684.463623,707.124146 699.951355,692.250122 
	C704.216980,689.655884 707.380310,691.657410 708.211792,697.639648 
z"/>
<path fill="#437940" opacity="1.000000" stroke="none" 
	d="
M626.565430,742.889709 
	C625.496582,748.393555 621.332947,752.313660 617.858459,756.355164 
	C605.065369,771.235657 590.938904,784.930725 578.405884,800.066528 
	C576.767639,802.045044 575.573608,803.738586 576.022278,806.700867 
	C576.600708,810.520264 574.096191,812.971191 570.425293,813.753235 
	C567.451355,814.386780 565.358826,815.974915 563.528687,818.292419 
	C551.557678,833.450989 538.338745,847.477417 524.612183,861.042542 
	C523.193298,862.444702 521.562073,862.979858 519.268005,863.029968 
	C511.348724,855.562744 503.825775,848.075378 496.122803,840.307007 
	C496.395050,837.261902 498.006226,835.096252 499.900421,833.248108 
	C512.184875,821.262268 521.287598,806.580017 533.104797,794.200439 
	C536.638245,790.498840 539.616333,786.140320 545.627319,786.251648 
	C547.336914,786.283325 548.457764,784.693237 549.643677,783.511353 
	C554.826660,778.346252 559.599792,772.818115 564.166992,767.113342 
	C566.249512,764.512085 568.943115,762.646606 571.729492,760.331787 
	C590.580078,756.038574 608.632324,750.272888 626.565430,742.889709 
z"/>
<path fill="#3D693B" opacity="1.000000" stroke="none" 
	d="
M512.718628,764.412292 
	C513.388000,764.382446 513.839050,764.351868 514.618530,764.416382 
	C517.098572,765.700684 516.970642,767.243286 515.735718,769.059326 
	C514.049988,771.538330 512.228455,773.897461 510.037079,775.950195 
	C499.484161,785.835815 490.349792,797.048035 480.459717,807.553345 
	C478.828522,809.285950 477.607330,811.182922 477.337250,813.630310 
	C477.136658,815.447449 476.983337,817.409241 474.081116,817.572998 
	C472.221741,816.269714 470.652893,815.024719 469.246582,813.617249 
	C437.462952,781.810791 405.692017,749.991577 373.944946,718.148682 
	C372.550751,716.750244 371.405487,715.103577 370.086975,713.232117 
	C380.626862,719.732910 390.778412,727.237854 401.889648,733.314697 
	C429.339783,748.327698 458.514038,757.846619 489.479950,762.304016 
	C496.709381,763.344666 503.916229,763.622375 511.602478,764.280090 
	C512.064697,764.381409 512.500305,764.411560 512.718628,764.412292 
z"/>
<path fill="#3E713C" opacity="1.000000" stroke="none" 
	d="
M473.875214,817.852051 
	C473.221619,807.942993 481.301361,803.461060 486.374390,797.399109 
	C493.264557,789.165710 501.119324,781.740906 508.538055,773.948059 
	C511.044556,771.315063 513.620117,768.715454 514.892090,764.831665 
	C533.812317,764.634827 552.587708,763.627075 571.571167,760.061768 
	C571.812866,763.672241 568.864563,765.445190 566.865234,767.797180 
	C561.273438,774.375305 555.578735,780.865906 549.925293,787.391602 
	C548.793884,788.697632 547.448364,789.892944 545.654846,789.480835 
	C541.961853,788.632263 539.630005,790.583069 537.478821,793.044495 
	C528.734985,803.049133 520.112000,813.142578 512.055542,823.730652 
	C507.556580,829.643372 502.185455,834.862610 496.269165,839.913513 
	C488.270721,833.091431 481.048615,825.707092 473.875214,817.852051 
z"/>
<path fill="#4E8A4B" opacity="1.000000" stroke="none" 
	d="
M554.093140,898.338501 
	C557.008728,898.148193 559.171265,896.446594 561.189453,894.333618 
	C569.335938,885.804260 577.486572,877.278076 585.714172,868.827209 
	C588.842468,865.613892 592.182251,862.606384 595.659424,859.281921 
	C591.765015,880.443298 587.636475,901.827820 583.509827,923.212585 
	C583.227905,924.673340 582.959656,926.136719 582.440857,927.909607 
	C581.551025,925.848633 579.761047,924.312927 578.128845,922.665283 
	C570.183777,914.644775 562.235046,906.627808 554.093140,898.338501 
z"/>
<path fill="#3D693B" opacity="1.000000" stroke="none" 
	d="
M369.141235,712.126099 
	C369.298035,712.107361 369.631653,712.282043 370.029297,712.740112 
	C369.834930,712.788879 369.576508,712.554260 369.141235,712.126099 
z"/>
<path fill="#3D693B" opacity="1.000000" stroke="none" 
	d="
M367.739685,711.074524 
	C367.858276,711.118530 368.288574,711.277039 368.890869,711.740723 
	C368.725739,711.760254 368.388550,711.474609 367.739685,711.074524 
z"/>
<path fill="#4E7F4C" opacity="1.000000" stroke="none" 
	d="
M638.160034,627.276917 
	C631.763184,622.138550 631.811096,622.194824 625.373596,627.676086 
	C621.592529,630.895508 617.630066,633.901794 613.421936,637.113770 
	C610.623474,636.079712 611.388855,634.494629 612.404480,632.759827 
	C617.278687,624.433960 623.358154,616.951416 628.937500,609.120911 
	C630.201172,607.347412 631.922607,605.769043 631.713074,603.455322 
	C631.384949,599.831360 633.234985,597.310059 635.756104,595.346313 
	C642.646484,589.979126 645.552246,581.647766 650.998779,575.186218 
	C653.558105,572.150024 654.221924,567.753784 656.317383,564.103760 
	C659.955688,557.765991 663.517944,551.468384 668.121582,545.764832 
	C669.492493,544.066345 670.218384,541.854248 669.414612,539.642761 
	C668.146301,536.153564 669.670715,533.802917 671.793518,531.129456 
	C678.907166,522.170410 686.375610,513.169922 691.145874,502.903503 
	C694.512085,495.658966 699.692139,490.344452 704.186646,484.262054 
	C705.285217,482.775421 705.982361,481.312164 706.191833,479.160828 
	C708.957092,475.428833 711.719238,472.130280 714.848572,469.154968 
	C716.926941,467.178955 718.592773,464.876160 719.381531,462.114838 
	C721.516846,454.639709 725.164551,448.143738 730.767700,442.653687 
	C742.611389,431.049103 752.779358,417.907623 764.188416,405.901276 
	C765.341858,404.687408 766.299316,402.676788 768.983521,403.681976 
	C780.145691,412.963806 789.655396,423.444366 799.718872,433.825897 
	C800.850708,435.808685 800.400574,437.274719 799.163147,438.637878 
	C793.903503,444.432129 789.468506,450.608978 786.261230,457.951904 
	C784.003723,463.120392 779.447693,467.325439 775.385498,471.471741 
	C769.091858,477.895691 763.203003,484.691071 757.923706,491.909973 
	C751.878845,500.175751 743.126953,505.701355 736.965454,513.771423 
	C736.185059,514.793518 734.842468,515.407532 735.092957,517.305298 
	C736.901367,520.099548 736.639587,522.149780 734.866028,524.801819 
	C726.516052,537.287903 715.349854,547.281677 705.427368,558.347229 
	C688.365784,577.374329 670.244263,595.456238 654.630432,615.763184 
	C651.877747,619.343140 648.483643,622.289368 645.417297,625.557373 
	C643.405273,627.701721 641.195251,628.284607 638.160034,627.276917 
z"/>
<path fill="#446C43" opacity="1.000000" stroke="none" 
	d="
M662.757690,373.986938 
	C675.119202,361.244904 687.384338,348.838409 699.904297,336.198059 
	C701.798401,335.923035 702.996582,336.797363 704.072815,337.886505 
	C714.724121,348.665283 725.370117,359.449371 736.190063,370.525909 
	C736.886353,373.382721 735.064819,374.804504 733.599670,376.349670 
	C728.779663,381.433167 724.584778,387.046387 719.989319,392.320343 
	C716.234131,396.629883 712.909241,401.345490 712.261108,407.140381 
	C711.622009,412.854797 708.640503,417.104889 704.756409,420.741943 
	C699.644043,425.529175 696.892700,431.823151 693.238892,437.530731 
	C691.405518,440.394623 689.458130,442.466675 685.849670,442.619904 
	C683.723511,442.710175 682.152222,444.006775 680.775269,446.069366 
	C676.889893,446.963196 675.484375,450.120667 673.285095,452.496582 
	C667.413818,458.839508 661.159607,464.819000 655.041565,470.927216 
	C647.511658,478.445099 640.035950,486.017975 632.441467,493.470184 
	C630.843628,495.038086 629.462402,497.197021 626.354736,496.825867 
	C624.266479,495.917816 622.432495,496.246307 620.612854,496.253815 
	C618.917358,496.260834 617.343018,495.972717 616.304016,494.313721 
	C613.471375,489.791107 609.714905,488.861084 605.892151,492.445374 
	C601.023132,497.010620 595.366760,500.566223 590.453003,504.927246 
	C583.369202,511.214264 575.081360,516.028625 568.682373,523.105957 
	C567.428406,524.492920 565.887329,525.567261 563.539062,524.253845 
	C560.810364,521.894592 562.372986,519.754761 563.448486,517.778992 
	C569.604309,506.470306 577.560547,496.462036 586.137512,486.935516 
	C588.515442,484.294342 590.513123,481.767059 590.991211,477.956512 
	C591.461487,474.208862 594.681580,471.728027 597.097656,469.052887 
	C602.777954,462.763580 606.058105,454.709717 612.236389,448.796600 
	C613.308289,447.770630 614.103516,446.082489 613.565735,444.663330 
	C612.068909,440.713531 614.237183,438.190491 616.298828,435.247192 
	C623.942749,424.334167 633.134888,414.625946 640.664734,403.634796 
	C641.039856,403.087158 641.481140,402.461456 642.057251,402.222260 
	C649.221252,399.247681 652.689514,392.412048 657.850647,387.338654 
	C661.622864,383.630524 665.067261,380.155945 662.757690,373.986938 
z"/>
<path fill="#558D54" opacity="1.000000" stroke="none" 
	d="
M684.370911,674.109375 
	C680.671631,670.589233 677.299622,667.206604 673.760315,663.526611 
	C674.977905,655.718079 678.102234,649.170654 683.950500,644.042847 
	C686.713928,641.619873 688.905212,638.708313 690.543579,635.383728 
	C692.637695,631.134338 696.070007,627.967163 699.339294,624.665100 
	C700.465576,623.527466 701.950684,622.424316 700.244934,620.501160 
	C697.856506,617.808472 698.968750,615.310303 700.954041,612.956787 
	C707.362122,605.360596 712.733521,596.948120 719.407654,589.558899 
	C721.856995,586.847046 724.027100,583.911621 726.121460,580.482239 
	C728.556274,579.177185 730.309204,577.818726 731.723511,575.626221 
	C742.317627,559.202820 755.870178,545.175781 768.643555,530.520325 
	C769.621704,529.398010 770.745972,527.945374 772.255066,528.020691 
	C780.962769,528.454895 784.422363,521.529175 787.891296,515.920044 
	C799.234497,497.578705 813.781982,481.784119 827.013306,464.946167 
	C827.579651,464.225403 828.345886,464.009460 829.577515,464.089844 
	C833.954346,467.089294 837.258423,470.799164 840.771362,474.761536 
	C842.247253,477.494537 840.761475,479.126923 839.225037,480.709564 
	C836.699890,483.310516 835.492004,486.278137 835.141357,490.011902 
	C834.639893,495.350220 830.063232,498.755920 827.585510,503.198792 
	C826.639343,504.895386 825.247375,506.415802 823.949280,507.927551 
	C822.157898,510.013885 820.268005,511.808136 823.768494,514.331909 
	C825.707703,515.730042 824.715820,517.920044 823.323792,519.615051 
	C818.589966,525.379150 813.948242,531.208008 810.221008,537.707092 
	C809.651062,538.700867 808.353516,539.503357 808.290466,540.559814 
	C807.758179,549.474670 799.363342,552.952332 795.196716,559.755127 
	C782.609985,574.608521 768.851562,587.918823 756.359070,602.388245 
	C750.707581,608.934082 744.402588,614.878723 738.487244,621.187866 
	C722.791809,637.928162 707.525269,655.091187 690.947815,670.989929 
	C689.228088,672.639282 687.772522,675.076721 684.370911,674.109375 
z"/>
<path fill="#497648" opacity="1.000000" stroke="none" 
	d="
M678.751770,445.242310 
	C679.262512,442.387512 680.526489,440.102631 683.214783,440.285187 
	C688.950195,440.674622 691.483215,436.666962 693.198303,432.721802 
	C695.462219,427.514435 698.814514,423.333466 702.703491,419.502960 
	C706.744812,415.522430 709.270447,410.780853 709.862427,405.306458 
	C710.466248,399.721863 713.839111,395.859467 717.105408,391.984192 
	C723.097351,384.874939 728.328552,377.057281 736.051147,371.018066 
	C746.272400,379.083221 754.759888,388.801880 763.945984,397.805664 
	C765.705994,399.530823 767.297974,401.427460 769.143311,403.533356 
	C755.505066,419.106018 741.693970,434.392914 727.873047,449.670990 
	C726.280701,451.431244 724.862305,453.389984 724.476685,455.696106 
	C722.738464,466.091156 714.962524,472.435852 708.310791,479.880127 
	C693.506653,498.173309 674.654846,511.634735 657.443848,526.868225 
	C653.210632,530.615051 649.209106,534.615601 644.787537,538.161438 
	C642.951294,539.634033 641.225037,540.593018 638.582153,539.314026 
	C636.172546,537.364197 636.536865,535.254211 637.925293,533.411743 
	C640.650146,529.795715 641.798767,526.051086 642.489868,521.381958 
	C643.175110,516.752747 645.170715,511.493683 648.624756,507.510559 
	C652.596069,502.930847 657.728455,499.036377 657.154175,491.938385 
	C657.073914,490.946503 657.966614,490.080261 658.722290,489.479919 
	C663.122986,485.983795 663.954407,480.363983 666.857178,475.985260 
	C667.232056,475.419800 667.479370,474.746429 667.186707,474.095825 
	C664.278687,467.630035 668.527527,463.158234 671.657593,458.465149 
	C672.852600,456.673401 674.617126,455.168610 674.684265,452.891876 
	C674.777100,449.745209 676.493103,447.571869 678.751770,445.242310 
z"/>
<path fill="#609D5D" opacity="1.000000" stroke="none" 
	d="
M940.522339,573.897949 
	C941.549072,578.409424 939.392822,580.232910 935.241943,581.042664 
	C912.320312,585.514771 889.433472,590.165222 866.530396,594.732727 
	C862.637695,595.509033 858.747009,596.543152 854.813049,596.794006 
	C851.068542,597.032837 849.830444,598.877502 848.945435,602.182983 
	C843.573425,622.247559 836.626709,641.750427 827.252563,660.688843 
	C825.423706,661.272522 824.041199,662.425781 822.374878,662.342102 
	C811.822083,661.812195 801.502136,663.925964 790.706177,664.964722 
	C787.270630,662.886719 787.770447,660.638794 789.881897,658.272705 
	C790.989380,657.031677 792.180542,655.868164 793.254028,654.595520 
	C794.419678,653.213501 795.093079,651.923767 793.532593,650.256226 
	C791.545898,648.133423 792.226501,646.089111 793.986328,644.078186 
	C803.831848,632.827576 812.432739,620.546204 822.538208,609.513733 
	C824.732971,607.117676 825.960388,604.522949 826.844910,601.332520 
	C828.412537,595.678711 829.890381,589.306946 838.077698,589.722961 
	C839.496277,589.794983 840.484253,588.796997 841.203735,587.560181 
	C848.073547,575.751221 856.977783,565.436646 865.316101,554.702576 
	C869.389709,549.458679 872.997375,543.854614 877.725098,539.122986 
	C879.550842,537.295776 880.114075,534.852661 880.686951,532.376282 
	C881.681091,528.078979 885.572815,524.789429 889.801941,524.756653 
	C892.104126,525.528687 893.494629,526.977722 894.877441,528.412354 
	C908.698792,542.751160 923.585449,556.045959 936.693726,571.087036 
	C937.645203,572.178833 939.027466,572.895020 940.522339,573.897949 
z"/>
<path fill="#538652" opacity="1.000000" stroke="none" 
	d="
M829.752625,463.831482 
	C824.998718,473.093994 817.903381,480.434052 811.268066,488.058380 
	C803.824158,496.611786 797.683960,506.055786 791.468323,515.430603 
	C788.321472,520.176941 784.093567,524.001648 781.202454,528.897095 
	C780.296082,530.431885 778.548645,531.028503 776.801208,530.583252 
	C773.111267,529.643188 771.162415,531.715576 768.770630,534.128357 
	C759.963684,543.012695 752.964355,553.447144 744.169006,562.316162 
	C742.511047,563.987976 741.160034,565.846985 739.977112,567.878052 
	C736.940979,573.091187 733.386108,577.892944 728.274780,581.805542 
	C725.430725,579.520325 724.736877,574.187317 726.845947,570.396240 
	C728.197998,567.966064 729.184387,566.076294 726.023987,564.242676 
	C724.808167,563.537292 723.812012,548.559265 724.865051,547.569946 
	C729.979492,542.765381 730.260376,536.058167 731.990417,529.937073 
	C732.479736,528.205933 733.184570,526.685669 734.187805,525.219910 
	C737.481567,520.407654 737.053833,519.419250 731.218506,518.277954 
	C744.689453,502.480988 758.455872,487.031921 772.017395,471.404968 
	C777.288391,465.331177 783.082397,459.760223 786.162781,451.827118 
	C788.807312,445.016296 794.538391,439.955261 799.725464,434.365723 
	C810.311646,443.394806 819.918091,453.495209 829.752625,463.831482 
z"/>
<path fill="#5C995A" opacity="1.000000" stroke="none" 
	d="
M889.966736,524.633667 
	C886.260010,527.759338 882.926819,530.847046 882.534973,536.080566 
	C882.444641,537.286682 881.578552,538.598511 880.728027,539.559387 
	C868.388062,553.499573 857.935913,568.920837 846.295898,583.408813 
	C845.386597,584.540588 844.611267,585.960754 844.304871,587.362915 
	C843.341980,591.769470 841.636047,594.264893 836.387756,592.675842 
	C833.505371,591.803162 829.658813,596.664856 829.514160,601.570984 
	C829.416870,604.872131 828.227112,607.186462 826.075989,609.478638 
	C818.683044,617.356201 811.899963,625.738342 805.533691,634.477722 
	C802.244385,638.993225 797.648682,642.487488 794.856934,647.309509 
	C795.502136,648.375183 796.099976,647.967468 796.684998,647.684814 
	C797.805786,647.143311 799.005371,645.721252 800.129395,647.321167 
	C800.912354,648.435608 799.641357,649.413147 799.171021,650.442139 
	C797.055420,655.071106 792.656677,657.960266 790.099243,662.645752 
	C790.066772,665.065125 788.657471,665.857117 786.961731,666.328186 
	C769.738525,671.113037 753.468933,678.007751 738.643250,688.110352 
	C737.649597,688.787415 736.571594,689.155273 735.022461,688.561523 
	C731.322693,685.332092 733.484741,682.205200 734.840515,679.378784 
	C737.817627,673.171936 742.896912,668.456726 747.069397,663.099121 
	C749.106140,660.483826 751.190308,657.897095 753.393616,655.406555 
	C755.834595,652.647400 758.068115,649.917114 756.117859,645.658203 
	C754.911560,643.023865 757.292847,641.168884 758.822327,639.181641 
	C766.402832,629.332031 774.398865,619.815308 782.294922,609.749023 
	C786.080078,608.341187 788.679749,606.335571 790.430298,602.835205 
	C791.972656,599.750916 794.630188,597.328308 797.103577,594.859558 
	C801.220154,590.750549 805.472351,586.776062 809.074585,582.161743 
	C811.121155,579.540100 813.500000,577.004028 816.573303,575.679077 
	C827.400330,571.011169 833.967834,561.502747 842.022461,553.692444 
	C854.066345,542.014038 865.027832,529.267761 877.311401,517.823181 
	C878.416382,516.793640 879.544312,515.784607 881.596924,516.056580 
	C885.020935,518.403320 887.922546,520.890869 889.966736,524.633667 
z"/>
<path fill="#5B935A" opacity="1.000000" stroke="none" 
	d="
M881.773071,515.791992 
	C881.213379,516.967346 880.531860,517.920410 879.721680,518.747375 
	C862.290344,536.539062 844.838867,554.311035 827.410156,572.105286 
	C825.521545,574.033569 823.468506,575.515564 820.835083,576.408142 
	C816.640686,577.829712 813.554321,580.856201 810.605164,584.105957 
	C803.244568,592.216919 795.753723,600.210449 788.246643,608.186646 
	C787.251221,609.244263 785.857544,609.927063 784.325439,610.890503 
	C782.152161,610.197693 782.358032,608.916321 782.937622,607.313171 
	C785.687134,599.708191 789.003601,592.335938 792.044006,584.850830 
	C792.685364,583.271973 793.960632,582.161133 795.064453,580.930603 
	C796.179932,579.687134 797.667969,578.395386 797.534546,576.732056 
	C797.004822,570.128235 802.509827,565.064697 801.532227,559.340088 
	C799.478027,563.077881 796.892212,563.457092 793.974731,559.349792 
	C795.348755,554.994934 798.970825,552.884644 801.591919,549.946655 
	C803.146851,548.203857 805.006653,546.747498 803.883484,543.940674 
	C803.236938,542.324768 804.392822,541.070068 805.351379,539.942078 
	C810.495850,533.888306 813.410889,526.223145 819.366821,520.724060 
	C820.564148,519.618530 822.065369,518.241455 821.933228,516.174072 
	C819.728699,514.895630 817.276794,518.733276 816.075378,516.579285 
	C814.754456,514.211121 817.858887,512.296875 819.045837,510.264099 
	C821.545166,505.983826 825.231262,502.538879 827.810913,498.230499 
	C830.085754,494.431213 832.637207,491.162323 832.853027,486.235443 
	C833.057190,481.573944 837.934753,479.121033 840.777954,475.304016 
	C854.736755,488.292969 868.463928,501.600922 881.773071,515.791992 
z"/>
<path fill="#65AD61" opacity="1.000000" stroke="none" 
	d="
M734.652100,686.972900 
	C744.093506,682.296143 752.400696,676.214172 761.980103,672.313782 
	C770.897522,668.683044 779.969238,665.649292 789.617188,663.061218 
	C800.846802,660.878174 811.767212,659.464844 822.861938,659.849609 
	C824.148682,659.894226 825.502014,659.359375 826.811646,660.697754 
	C823.202332,670.174561 818.159058,678.769714 813.000732,687.275879 
	C811.365295,689.972839 811.495361,691.770264 813.215576,694.325073 
	C828.428955,716.919861 843.396118,739.681091 858.708252,762.208008 
	C861.370667,766.124939 861.512695,768.582153 858.466064,772.447876 
	C847.450989,786.424377 836.263245,800.219482 823.358337,812.974121 
	C820.222351,813.401978 818.554565,811.487427 816.788147,809.740784 
	C807.387268,800.445251 798.125366,791.010193 788.378784,781.593018 
	C783.848572,779.136597 781.866150,774.704163 778.599060,771.473755 
	C770.375305,763.342224 761.977417,755.374756 753.957336,746.546143 
	C744.302063,737.650452 735.497864,728.393005 726.473267,719.358826 
	C725.427795,718.312256 724.354492,717.214966 724.296265,715.213257 
	C721.826599,710.937012 717.089539,709.037292 715.063477,704.303589 
	C714.946533,703.502319 714.778748,702.880554 715.013123,702.532776 
	C719.841370,695.366882 725.904724,689.703491 734.652100,686.972900 
z"/>
<path fill="#4E8A4B" opacity="1.000000" stroke="none" 
	d="
M723.948608,715.061401 
	C729.981079,718.470520 734.037842,723.859436 738.810425,728.468567 
	C744.198059,733.671631 749.326721,739.142761 754.757690,744.768982 
	C756.439575,748.448608 754.050415,750.060425 751.705566,751.299133 
	C748.672852,752.901245 746.106628,754.973328 744.276611,757.783203 
	C739.145752,765.661194 732.205200,771.953979 725.776306,778.628845 
	C715.980774,788.799255 707.628357,800.278320 697.149109,809.804016 
	C696.041077,810.811218 694.998840,811.888733 693.314026,812.723145 
	C692.662964,812.874451 692.384766,812.737183 692.033813,812.282532 
	C691.717712,811.753601 691.471558,811.478027 690.903687,811.151306 
	C687.913025,809.700623 685.869385,811.467407 683.762146,812.654541 
	C663.720642,823.944458 642.570862,832.662659 620.404053,839.897034 
	C623.602905,833.366699 629.868896,829.166870 634.329834,823.356934 
	C639.072327,817.180359 644.613647,811.623047 649.654175,805.666687 
	C651.869385,803.049133 654.253235,800.437744 652.803711,796.316711 
	C652.074097,794.242310 653.892944,792.578430 655.339233,791.212891 
	C670.154053,777.224121 681.932678,760.651367 694.245239,744.608459 
	C700.214600,736.830444 707.017456,729.759033 712.638245,721.750610 
	C715.404602,717.809082 720.390869,718.120667 723.948608,715.061401 
z"/>
<path fill="#549452" opacity="1.000000" stroke="none" 
	d="
M693.277283,813.093994 
	C693.158203,811.172180 693.837585,809.688232 695.070740,808.480347 
	C706.684387,797.105713 716.640259,784.212891 727.958252,772.570496 
	C732.581604,767.814636 737.769775,763.497314 740.972290,757.595764 
	C744.090576,751.849487 750.474426,750.067200 754.760742,745.314331 
	C766.695801,756.003540 778.332947,767.075439 788.838623,779.716919 
	C790.097656,782.523987 789.211182,784.673706 786.686279,784.935730 
	C778.365662,785.799072 774.880798,792.453552 770.614319,797.996887 
	C759.972595,811.823303 748.632385,825.035095 736.745544,837.792480 
	C735.878174,838.723450 734.846130,839.074097 733.274963,839.098877 
	C719.353516,831.193176 706.635315,821.968018 693.277283,813.093994 
z"/>
<path fill="#5B9E57" opacity="1.000000" stroke="none" 
	d="
M733.105103,839.407104 
	C738.856873,830.487854 746.887695,823.660828 753.386536,815.500000 
	C760.798157,806.192871 768.236938,796.904724 775.836060,787.751343 
	C778.218750,784.881165 780.706177,781.768738 785.340393,782.586365 
	C786.679016,782.822510 787.643127,781.444336 788.795410,780.233459 
	C790.160156,780.647583 791.491272,781.103577 792.383667,781.997498 
	C802.522827,792.153442 812.594971,802.376343 822.877747,812.864502 
	C809.237671,828.469482 793.680847,841.906189 777.429199,854.547607 
	C767.309631,862.419312 767.190430,862.288147 756.420532,855.133423 
	C748.698364,850.003357 741.000793,844.836182 733.105103,839.407104 
z"/>
<path fill="#549452" opacity="1.000000" stroke="none" 
	d="
M690.809570,811.268738 
	C690.929565,811.270935 691.215210,811.496948 691.701660,811.903564 
	C691.593323,811.887024 691.284302,811.689819 690.809570,811.268738 
z"/>
<path fill="#3D693B" opacity="1.000000" stroke="none" 
	d="
M449.374695,647.101257 
	C410.216736,625.187195 384.340973,592.743225 374.584656,549.533813 
	C360.180237,485.738678 379.607422,432.674255 430.575806,391.057861 
	C432.905396,389.739349 434.706360,390.278839 436.397034,391.632324 
	C437.699646,392.675232 438.863831,393.869049 440.040161,395.047394 
	C472.395844,427.458344 504.836792,459.784088 537.168396,492.219116 
	C539.162354,494.219452 540.900818,496.454773 542.746277,498.577942 
	C545.636719,501.903198 545.478088,504.804626 542.726929,507.811981 
	C539.321045,511.535095 536.763855,515.775574 534.474609,520.239807 
	C533.099243,522.921875 531.075806,525.205627 528.750793,527.116760 
	C525.000732,530.199341 522.646057,533.369263 521.416870,538.711914 
	C520.310181,543.521912 518.223572,549.070618 514.700256,553.396606 
	C510.296936,558.803223 506.855835,564.971924 500.865753,570.393311 
	C504.278870,568.080444 505.908478,567.943909 507.153717,569.524536 
	C508.626251,571.393494 508.321198,573.335876 506.766296,574.944580 
	C501.906738,579.972107 497.352600,585.276489 492.591431,590.391724 
	C489.961914,593.216736 486.224060,595.373169 488.751740,600.432556 
	C489.589539,602.109558 487.622101,603.938110 486.228149,605.383362 
	C484.036316,607.656067 481.723328,609.919678 481.741058,613.826111 
	C474.552887,621.401428 468.525085,629.494934 462.148102,637.309937 
	C458.833069,641.372437 455.906647,646.517334 449.374695,647.101257 
z"/>
<path fill="#3F693E" opacity="1.000000" stroke="none" 
	d="
M479.216492,613.285400 
	C480.323120,609.464844 482.980713,606.894348 485.293274,604.063354 
	C486.706848,602.332825 487.631348,600.168762 484.351379,599.692566 
	C479.961670,599.055176 482.298096,597.349792 483.593292,595.964783 
	C489.846710,589.277527 496.197388,582.681152 502.460449,576.002747 
	C503.718933,574.660889 505.697754,573.596497 505.161774,570.908325 
	C501.534576,571.246887 500.183746,576.267212 495.464233,574.999634 
	C497.654602,571.852844 499.322266,568.785095 501.622223,566.303284 
	C505.495636,562.123779 508.734161,557.455994 511.752899,552.736206 
	C515.184998,547.370239 518.966370,541.887512 518.440552,534.880188 
	C518.273193,532.649658 519.960632,531.005066 521.583435,530.035156 
	C530.971008,524.424194 533.811462,513.613403 540.832703,506.148926 
	C542.216858,504.677429 542.211182,503.214111 540.984253,501.253204 
	C539.204163,498.408325 537.312378,495.769531 534.931946,493.393341 
	C502.378113,460.896973 469.865540,428.359283 437.328461,395.846130 
	C435.573608,394.092651 434.023254,392.054749 431.221832,391.062805 
	C450.025330,375.720001 471.817841,366.119843 495.784882,362.135406 
	C546.417419,353.718018 590.975403,366.745667 628.839783,401.663544 
	C631.247131,403.883606 632.520813,403.846863 634.760864,401.547485 
	C643.816284,392.252411 653.071411,383.151855 662.553467,373.815430 
	C663.678894,374.814850 664.693848,375.613464 666.220825,375.203247 
	C670.088989,374.164062 670.224792,376.074524 668.318359,378.354828 
	C660.932983,387.188843 654.988525,397.416016 644.662109,403.472076 
	C641.900269,405.091766 641.059631,408.175262 639.119263,410.428436 
	C631.527832,419.243408 624.452637,428.472870 617.569641,437.849640 
	C616.891846,438.773010 615.429077,439.799072 616.016541,440.780823 
	C619.628784,446.817413 614.756409,450.200531 611.688660,453.582947 
	C605.340515,460.582214 598.912292,468.276428 595.232483,476.257416 
	C588.805908,490.195831 576.573486,499.219788 569.451416,512.161621 
	C567.615417,515.497925 565.938232,518.921570 564.095276,522.650085 
	C565.731628,525.232727 564.059082,526.647461 562.747070,528.136108 
	C550.131653,542.449097 537.016418,556.296204 524.004150,570.245544 
	C512.920715,582.127075 501.608276,593.814209 490.841827,605.996704 
	C488.750732,608.362854 486.478302,610.555298 484.146240,612.680115 
	C482.788025,613.917603 481.386353,615.309143 479.216492,613.285400 
z"/>
<path fill="#427241" opacity="1.000000" stroke="none" 
	d="
M478.813721,613.264160 
	C483.149567,611.535034 485.550964,607.969604 488.360504,604.996704 
	C502.481232,590.055176 516.544800,575.058289 530.498718,559.960938 
	C541.636536,547.910461 552.588074,535.687744 563.812378,523.268311 
	C568.018311,521.680359 570.056946,517.970459 573.099121,515.475830 
	C583.935486,506.589874 595.599426,498.742584 605.755737,488.984253 
	C608.885315,485.977264 613.979797,487.994751 617.808655,485.790527 
	C618.848694,485.191803 620.073425,487.368042 619.513306,488.643646 
	C617.379639,493.502655 619.965393,493.960999 623.777893,493.651733 
	C624.319885,493.607758 624.917725,494.250824 625.742432,494.786743 
	C628.175293,496.776398 627.330688,498.403015 625.791382,500.059235 
	C623.408264,502.623383 620.934753,505.098206 618.436340,507.546509 
	C612.315491,513.544495 607.688354,520.369995 604.694519,528.546387 
	C602.633179,534.176208 597.540405,538.066589 593.955994,542.853821 
	C590.370850,547.642029 587.263062,552.816467 582.924805,557.014648 
	C581.849121,558.055603 581.941833,558.819763 582.908081,559.943604 
	C584.930481,562.295837 584.107788,564.500122 582.296814,566.633240 
	C579.227295,570.248718 576.984009,574.967773 571.013977,574.441345 
	C569.992188,574.351257 569.054932,575.024231 568.695312,576.059692 
	C566.088257,583.565918 560.263977,588.772217 555.224976,594.441528 
	C544.060486,607.002625 533.749634,620.283386 522.232971,633.092346 
	C523.823975,634.268677 526.148987,634.895935 526.094421,637.550232 
	C526.047485,639.833130 524.645630,641.197510 523.286682,642.632629 
	C519.849609,646.262329 516.252502,649.735168 512.717224,653.268433 
	C510.587433,655.397034 508.436218,657.531128 507.395752,660.429626 
	C506.548340,662.790344 504.274139,663.226624 502.262207,664.604248 
	C501.504944,664.803223 501.018036,664.792297 500.186096,664.656067 
	C499.500244,664.513123 499.208038,664.384766 498.724518,664.103455 
	C480.988861,661.985596 464.898682,655.762268 449.271423,647.220825 
	C457.205811,641.004456 462.468750,632.373230 468.882904,624.830505 
	C472.100037,621.047302 475.479584,617.389099 478.813721,613.264160 
z"/>
<path fill="#467644" opacity="1.000000" stroke="none" 
	d="
M502.406860,664.918457 
	C505.456329,655.992493 512.483826,650.011902 518.930420,643.567627 
	C519.871887,642.626587 520.858276,641.722290 521.720825,640.712891 
	C522.652771,639.622253 524.168945,638.481934 522.766418,636.894043 
	C521.727417,635.717651 520.304871,636.256958 519.070801,636.856201 
	C518.201111,637.278503 517.364258,637.768738 516.539734,638.214111 
	C515.367371,636.819641 516.481567,636.147644 517.056091,635.484680 
	C531.194885,619.171143 544.614807,602.243835 559.154053,586.269592 
	C562.246094,582.872437 565.047974,579.337952 565.666992,574.290710 
	C566.008850,571.503296 567.886780,568.392029 571.977295,571.175537 
	C573.669556,572.327148 575.337158,571.291992 576.345520,569.931580 
	C578.089233,567.578979 581.691589,565.576111 581.037354,562.716248 
	C580.326965,559.611084 577.914917,563.780518 575.985535,562.824707 
	C574.908020,560.899475 576.651184,559.872253 577.718506,558.852539 
	C586.674927,550.295288 592.705933,539.378784 600.895752,530.183044 
	C603.631226,527.111572 603.967346,522.488647 606.230591,518.709045 
	C610.533142,511.523590 616.632874,506.257751 622.161133,500.343109 
	C623.519043,498.890350 625.110168,497.623169 625.889038,495.321106 
	C628.563171,494.344635 630.136292,492.344116 631.881653,490.601379 
	C645.587708,476.915558 659.273010,463.208954 672.982361,449.526398 
	C674.611084,447.900909 676.060364,446.025543 678.672241,445.102417 
	C678.232788,447.681335 676.960022,450.244263 677.624695,453.217773 
	C678.018860,454.980988 677.090942,456.522705 675.786255,457.620758 
	C672.748901,460.177185 671.153870,463.545624 669.745728,467.145172 
	C668.810242,469.536560 667.029236,471.451355 671.862549,470.786438 
	C674.366333,470.442017 673.490112,473.017059 672.408142,473.842438 
	C666.628235,478.251892 666.705078,486.606293 660.770325,490.859375 
	C660.404663,491.121490 659.951965,491.795685 660.056335,492.102081 
	C662.504272,499.285522 656.356995,502.586212 652.776489,506.307404 
	C648.806580,510.433350 648.468750,515.944214 645.326599,520.166260 
	C648.805237,527.892456 640.473450,531.325867 639.051392,537.643555 
	C640.836426,539.518555 640.379333,541.010986 639.213501,542.781860 
	C637.551819,545.305847 635.474731,547.464478 633.580383,549.781555 
	C622.892212,562.854431 613.685425,577.119934 601.674438,589.137329 
	C598.775635,592.037659 596.172119,594.757751 591.581116,594.569458 
	C587.879211,594.417603 585.348816,597.030029 583.499451,599.790649 
	C577.265198,609.096924 568.940247,616.686035 562.457764,625.765381 
	C553.465881,638.359375 543.621582,650.231628 532.935120,661.424805 
	C531.514282,662.912964 529.922180,664.152405 528.216187,665.812744 
	C519.545349,666.834167 511.171997,666.206848 502.406860,664.918457 
z"/>
<path fill="#497E47" opacity="1.000000" stroke="none" 
	d="
M528.436523,666.152954 
	C528.339661,662.708069 530.316895,660.232849 532.566833,657.966980 
	C544.899170,645.547241 555.036377,631.342285 565.720642,617.567810 
	C571.929810,609.562805 578.695618,601.987610 585.272583,594.271545 
	C586.680725,592.619507 588.334167,590.967590 590.812805,591.558105 
	C594.905945,592.533203 597.288574,590.336609 599.708679,587.497864 
	C604.456299,581.928955 609.422668,576.544006 614.374146,571.152344 
	C617.315308,567.949768 619.869324,564.635864 621.585693,560.499756 
	C623.991577,554.701782 629.737549,551.387329 633.280273,546.333618 
	C635.085205,543.758972 637.408447,541.545837 638.891846,538.323853 
	C643.919800,537.095215 646.872192,533.209473 650.203979,530.158752 
	C668.270935,513.616211 687.818115,498.747498 705.218384,481.455902 
	C705.782410,480.895355 706.633240,480.623352 707.673035,480.110260 
	C707.178650,484.115204 704.328613,487.291687 701.814575,490.097046 
	C696.093872,496.480682 694.178040,504.870392 689.058289,511.597321 
	C683.774597,518.539551 679.022217,525.937195 673.618347,532.827759 
	C672.078613,534.791016 670.591064,536.444092 672.625000,538.896362 
	C674.064880,540.632446 673.424438,542.385559 672.315857,543.947083 
	C667.051270,551.362793 661.893860,558.833313 657.579407,566.871521 
	C656.553528,568.782898 655.370239,570.520447 654.993164,572.720215 
	C654.773560,574.001343 654.548157,575.601318 653.703796,576.404480 
	C647.298462,582.497314 644.947510,591.728760 637.533142,597.046387 
	C635.319946,598.633789 633.790283,600.692139 635.224182,603.896240 
	C636.115051,605.886963 634.135803,607.151550 632.975647,608.527832 
	C625.590576,617.288940 619.005859,626.615356 613.179321,636.878784 
	C592.811523,652.622070 569.801086,661.318176 544.759277,665.006775 
	C539.502319,665.781128 534.220276,666.294006 528.436523,666.152954 
z"/>
<path fill="#579455" opacity="1.000000" stroke="none" 
	d="
M735.097107,686.660400 
	C728.506836,692.563843 721.998169,698.099487 715.202332,703.815552 
	C712.787964,702.129395 710.660706,700.262878 708.261047,698.215210 
	C706.011780,695.608643 704.287048,692.879456 700.565063,692.103882 
	C700.312317,689.057434 697.666199,687.944763 696.039429,686.205994 
	C692.289062,682.197510 688.340637,678.374329 684.258057,674.223877 
	C692.968384,665.727295 701.727295,657.320618 709.670898,648.101501 
	C715.210876,641.672058 721.406921,635.862000 727.141113,629.599182 
	C744.323425,610.832581 762.017456,592.535095 779.451355,573.997620 
	C781.836914,571.461060 783.877197,568.599915 786.080688,565.891785 
	C788.180054,563.311523 790.185181,560.627319 793.680969,559.108948 
	C797.769897,560.597107 800.039246,559.252136 801.177307,555.455017 
	C801.455444,554.526855 801.988953,553.637878 802.565430,552.847900 
	C803.054321,552.177979 803.846069,551.599792 804.717407,552.025696 
	C805.703979,552.507874 805.460632,553.458252 804.999939,554.154663 
	C802.867737,557.377808 804.809692,561.177002 803.888306,564.161926 
	C802.257874,569.443970 802.456909,575.839844 799.119385,579.888306 
	C794.220093,585.831299 791.649658,592.702271 788.770081,599.416016 
	C787.231995,603.002014 786.072021,606.818176 784.111084,610.661499 
	C783.274292,612.287964 782.777527,613.801819 781.781311,614.833313 
	C774.047668,622.840393 768.114990,632.299194 760.816772,640.646423 
	C759.007080,642.716370 757.554321,644.270386 760.638428,646.657349 
	C762.827087,648.351257 760.988464,650.204224 759.720459,651.748169 
	C753.620422,659.175842 747.553528,666.631042 741.400757,674.014832 
	C738.372498,677.649048 736.084839,681.607727 735.097107,686.660400 
z"/>
<path fill="#50884E" opacity="1.000000" stroke="none" 
	d="
M730.855713,518.244690 
	C732.286194,517.675232 733.562744,517.329163 734.850037,517.028809 
	C736.205383,516.712463 737.581726,514.895935 738.875488,516.360718 
	C739.835938,517.448059 738.578674,518.866638 738.002014,519.996643 
	C734.648438,526.567871 734.015564,533.859436 732.472046,540.896912 
	C731.886658,543.566284 730.168640,545.224182 728.485107,547.030029 
	C726.669495,548.977722 725.514893,550.607605 728.968628,552.317139 
	C732.005493,553.820312 730.093689,555.810364 728.915649,557.633545 
	C726.462158,561.430664 726.858032,562.247314 731.439392,562.396545 
	C733.862244,562.475403 735.659180,563.607483 733.576355,565.460876 
	C728.647644,569.846558 728.276611,575.419739 728.045166,581.616211 
	C726.333618,585.279968 723.926941,588.027771 721.642273,590.877441 
	C715.428650,598.627930 709.276733,606.428040 703.131592,614.233154 
	C702.338501,615.240417 701.091736,616.329529 701.910156,617.740723 
	C702.658447,619.030884 703.974976,618.279297 705.073486,618.015747 
	C705.885498,617.820984 706.780090,617.583862 707.222717,618.550049 
	C707.618286,619.413574 707.061340,620.145386 706.539917,620.797852 
	C706.126343,621.315308 705.706482,621.847961 705.202454,622.269958 
	C695.162231,630.676636 689.755493,642.937195 680.491760,651.992981 
	C679.805420,652.663940 678.814026,653.772400 678.972595,654.436829 
	C680.022217,658.834961 676.894043,660.676697 673.894165,663.029785 
	C661.769836,651.456665 649.946777,639.684143 637.972046,627.620911 
	C646.324768,623.341370 651.662781,615.925232 656.970886,608.765747 
	C662.848694,600.837891 669.528687,593.664490 676.151855,586.441101 
	C694.143921,566.818420 712.373901,547.414001 730.486877,527.901978 
	C731.501587,526.808838 732.364075,525.561279 733.205017,524.322937 
	C734.439575,522.505005 735.963989,520.669067 731.698669,521.254883 
	C728.461975,521.699341 730.253845,519.711243 730.855713,518.244690 
z"/>
<path fill="#3E713C" opacity="1.000000" stroke="none" 
	d="
M512.720947,764.347900 
	C512.936951,764.413025 512.609741,764.494324 512.609741,764.494324 
	C512.609741,764.494324 512.274475,764.466675 512.169556,764.424072 
	C512.064697,764.381409 512.505005,764.282715 512.720947,764.347900 
z"/>
<path fill="#467644" opacity="1.000000" stroke="none" 
	d="
M498.674011,664.231262 
	C498.798767,664.131897 499.106415,664.224426 499.624329,664.434692 
	C499.515198,664.487610 499.189301,664.444458 498.674011,664.231262 
z"/>
</svg>